# xmcd
#
# Track frame offsets:
#	182
#	14725
#	28065
#	40785
#	54792
#	68047
#	75300
#	88607
#	101205
#	110985
#	123852
#	136500
#	145267
#	154867
#	162270
#	182167
#	194237
#	204747
#	220300
#	232427
#	248050
#
# Disc length: 3489 seconds
#
# Revision: 5
# Processed by: cddbd v1.5PL3 Copyright (c) Steve Scherf et al.
# Submitted via: audiograbber 1.83.01
#
DISCID=330d9f15
DTITLE=Hank Williams - Live At The Grand Ole Opry [CD 1)
DYEAR=1999
DGENRE=Country
TTITLE0=Lovesick Blues
TTITLE1=Wedding Bells
TTITLE2=You're Gonna Change (Or I'm Gonna Leave)
TTITLE3=Why Don't You Love Me
TTITLE4=Comedy (With Red Foley and Minnie Pearl)
TTITLE5=They'll Never Take Her Love From Me
TTITLE6=Moanin' The Blues
TTITLE7=Nobody's Lonesome For Me
TTITLE8=Dear John
TTITLE9=Cold, Cold Heart
TTITLE10=Hey Good Lookin'
TTITLE11=Honky Tonk Blues
TTITLE12=Let The Spirit Descend
TTITLE13=Baby We're Really In Love
TTITLE14=Comedy (With Rod Brasfield)
TTITLE15=The Old Country Church
TTITLE16=I Can't Help It (If I'm Still In Love With You)
TTITLE17=Jambalaya (On The Bayou)
TTITLE18=Half As Much
TTITLE19=Window Shopping
TTITLE20=Long Gone Lonesome Blues
EXTD=YEAR: 1999 ID3G:   2
EXTT0=
EXTT1=
EXTT2=
EXTT3=
EXTT4=
EXTT5=
EXTT6=
EXTT7=
EXTT8=
EXTT9=
EXTT10=
EXTT11=
EXTT12=
EXTT13=
EXTT14=
EXTT15=
EXTT16=
EXTT17=
EXTT18=
EXTT19=
EXTT20=
PLAYORDER=
